<?xml version="1.0" encoding="UTF-8"?>
<svg width="1200pt" height="1200pt" version="1.1" viewBox="0 0 1200 1200" xmlns="http://www.w3.org/2000/svg">
 <path d="m112.5 606v-30.984c0.046875-54.75 21.188-107.3 58.969-146.86 37.828-39.562 89.391-63.094 144.05-65.672 11.578-98.297 73.031-183.71 162.56-225.94 89.531-42.234 194.48-35.391 277.74 18.188 83.25 53.578 133.03 146.29 131.68 245.26 0.28125 4.3594 0.28125 8.6719 0 13.031 14.297-1.7812 28.734-1.7812 43.031 0 44.578 8.0156 84.891 31.641 113.77 66.609 28.828 34.969 44.297 79.031 43.734 124.36-0.14063 48.094-19.312 94.219-53.344 128.21-33.984 34.031-80.062 53.203-128.16 53.297h-612.52c-47.766-0.09375-93.562-18.984-127.5-52.594-33.938-33.562-53.344-79.125-54-126.89zm337.5 406.5h-300c-20.719 0-37.5 16.781-37.5 37.5s16.781 37.5 37.5 37.5h300c20.719 0 37.5-16.781 37.5-37.5s-16.781-37.5-37.5-37.5zm600 0h-450c-20.719 0-37.5 16.781-37.5 37.5s16.781 37.5 37.5 37.5h450c20.719 0 37.5-16.781 37.5-37.5s-16.781-37.5-37.5-37.5zm0-150h-300c-20.719 0-37.5 16.781-37.5 37.5s16.781 37.5 37.5 37.5h300c20.719 0 37.5-16.781 37.5-37.5s-16.781-37.5-37.5-37.5zm-900 75h450c20.719 0 37.5-16.781 37.5-37.5s-16.781-37.5-37.5-37.5h-450c-20.719 0-37.5 16.781 37.5 37.5z" fill="#888888"/>
</svg>
